<svg width="144" height="144" viewBox="0 0 144 144" fill="none" xmlns="http://www.w3.org/2000/svg">
<path fill-rule="evenodd" clip-rule="evenodd" d="M72.1176 10.8762C72.344 10.7913 72.5935 10.7913 72.8199 10.8762L120.82 28.8762C121.21 29.0225 121.469 29.3957 121.469 29.8125V71.8125C121.469 90.2589 109.187 105.513 97.1273 116.065C91.0764 121.36 85.0302 125.516 80.4987 128.348C78.232 129.765 76.3416 130.852 75.0156 131.586C74.3525 131.953 73.8304 132.232 73.4726 132.42C73.2938 132.513 73.156 132.585 73.0623 132.633C73.0154 132.657 72.9795 132.675 72.955 132.687L72.9268 132.701L72.9192 132.705L72.917 132.706C72.9164 132.707 72.916 132.707 72.4688 131.812C72.0215 132.707 72.0211 132.707 72.0205 132.706L72.0183 132.705L72.0107 132.701L71.9825 132.687L71.9256 132.658L71.8752 132.633C71.7815 132.585 71.6437 132.513 71.4649 132.42C71.1071 132.232 70.585 131.953 69.9219 131.586C68.5959 130.852 66.7055 129.765 64.4388 128.348C59.9073 125.516 53.8611 121.36 47.8102 116.065C35.7505 105.513 23.4688 90.2589 23.4688 71.8125V29.8125C23.4688 29.3957 23.7273 29.0225 24.1176 28.8762L72.1176 10.8762ZM72.4688 131.812L72.916 132.707C72.6344 132.848 72.3031 132.848 72.0215 132.707L72.4688 131.812ZM72.0626 54.8649L72.0756 130.48C71.7608 130.312 71.3628 130.097 70.8906 129.836C69.5916 129.117 67.732 128.048 65.4987 126.652C61.0302 123.859 55.0764 119.765 49.1273 114.56C37.187 104.112 25.4688 89.3661 25.4688 71.8125V31.568L72.0626 54.8649ZM73.0626 54.8782L73.0756 130.366C73.3507 130.218 73.6759 130.041 74.0469 129.836C75.3459 129.117 77.2055 128.048 79.4388 126.652C83.9073 123.859 89.8611 119.765 95.8102 114.56C107.75 104.112 119.469 89.3661 119.469 71.8125V31.6751L73.0626 54.8782ZM119.469 30.5571V30.5055L72.4688 12.8805L25.5322 30.4817L72.5759 54.0035L119.469 30.5571Z" fill="#CCFF33"/>
<path d="M72.8199 10.8762L73.171 9.93984L73.171 9.93984L72.8199 10.8762ZM72.1176 10.8762L71.7665 9.93984L71.7665 9.93984L72.1176 10.8762ZM120.82 28.8762L121.171 27.9398L121.171 27.9398L120.82 28.8762ZM97.1273 116.065L97.7858 116.818L97.7858 116.818L97.1273 116.065ZM80.4987 128.348L79.9688 127.5L79.9687 127.5L80.4987 128.348ZM75.0156 131.586L75.4999 132.461L75.4999 132.461L75.0156 131.586ZM73.4726 132.42L73.0078 131.534L73.0078 131.534L73.4726 132.42ZM73.0623 132.633L73.518 133.523L73.5181 133.523L73.0623 132.633ZM72.955 132.687L73.4055 133.58L73.4065 133.58L72.955 132.687ZM72.9268 132.701L73.3756 133.595L73.3773 133.594L72.9268 132.701ZM72.9192 132.705L73.3664 133.6L73.368 133.599L72.9192 132.705ZM72.917 132.706L72.4698 131.812L72.4634 131.815L72.917 132.706ZM72.4688 131.812L73.3632 131.365L72.4688 129.576L71.5743 131.365L72.4688 131.812ZM72.0205 132.706L72.4742 131.815L72.4677 131.812L72.0205 132.706ZM72.0183 132.705L71.5695 133.599L71.5711 133.6L72.0183 132.705ZM72.0107 132.701L71.5602 133.594L71.5619 133.595L72.0107 132.701ZM71.9825 132.687L71.5297 133.579L71.532 133.58L71.9825 132.687ZM71.9256 132.658L71.4706 133.549L71.4727 133.55L71.9256 132.658ZM71.8752 132.633L71.4194 133.523L71.4203 133.523L71.8752 132.633ZM71.4649 132.42L71.9297 131.534L71.9297 131.534L71.4649 132.42ZM69.9219 131.586L69.4376 132.461L69.4376 132.461L69.9219 131.586ZM64.4388 128.348L64.9688 127.5L64.9687 127.5L64.4388 128.348ZM47.8102 116.065L47.1517 116.818L47.1517 116.818L47.8102 116.065ZM24.1176 28.8762L23.7665 27.9398L23.7665 27.9398L24.1176 28.8762ZM72.916 132.707L73.3632 133.601L74.2576 133.154L73.8104 132.26L72.916 132.707ZM72.0215 132.707L71.1271 132.26L70.6799 133.154L71.5743 133.601L72.0215 132.707ZM72.0756 130.48L71.6057 131.363L73.0759 132.146L73.0756 130.48L72.0756 130.48ZM72.0626 54.8649L73.0626 54.8647L73.0624 54.2468L72.5098 53.9705L72.0626 54.8649ZM70.8906 129.836L70.4062 130.711L70.4063 130.711L70.8906 129.836ZM65.4987 126.652L64.9687 127.5L64.9687 127.5L65.4987 126.652ZM49.1273 114.56L49.7858 113.807L49.7858 113.807L49.1273 114.56ZM25.4688 31.568L25.916 30.6735L24.4688 29.9499V31.568H25.4688ZM73.0626 54.8782L72.6153 53.9838L72.0624 54.2602L72.0626 54.8784L73.0626 54.8782ZM73.0756 130.366L72.0756 130.366L72.0759 132.037L73.5485 131.247L73.0756 130.366ZM74.0469 129.836L74.5312 130.711L74.5313 130.711L74.0469 129.836ZM79.4388 126.652L79.9688 127.5L79.9688 127.5L79.4388 126.652ZM95.8102 114.56L95.1517 113.807L95.1517 113.807L95.8102 114.56ZM119.469 31.6751H120.469V30.0571L119.022 30.7807L119.469 31.6751ZM119.469 30.5571L119.916 31.4515L120.469 31.1751V30.5571H119.469ZM119.469 30.5055H120.469V29.8125L119.82 29.5692L119.469 30.5055ZM72.4688 12.8805L72.8199 11.9442L72.4687 11.8125L72.1176 11.9442L72.4688 12.8805ZM25.5322 30.4817L25.1811 29.5454L23.0339 30.3506L25.085 31.3761L25.5322 30.4817ZM72.5759 54.0035L72.1287 54.8979L72.5759 55.1215L73.0231 54.8979L72.5759 54.0035ZM73.171 9.93984C72.7182 9.77005 72.2193 9.77005 71.7665 9.93984L72.4687 11.8125H72.4688L73.171 9.93984ZM121.171 27.9398L73.171 9.93984L72.4688 11.8125L120.469 29.8125L121.171 27.9398ZM122.469 29.8125C122.469 28.9788 121.952 28.2326 121.171 27.9398L120.469 29.8125L120.469 29.8125H122.469ZM122.469 71.8125V29.8125H120.469V71.8125H122.469ZM97.7858 116.818C109.905 106.213 122.469 90.7054 122.469 71.8125H120.469C120.469 89.8124 108.469 104.812 96.4688 115.312L97.7858 116.818ZM81.0287 129.196C85.5917 126.344 91.684 122.157 97.7858 116.818L96.4688 115.312C90.4687 120.562 84.4688 124.687 79.9688 127.5L81.0287 129.196ZM75.4999 132.461C76.8394 131.719 78.7452 130.623 81.0287 129.196L79.9687 127.5C77.7187 128.906 75.8437 129.984 74.5312 130.711L75.4999 132.461ZM73.9375 133.305C74.3014 133.114 74.83 132.832 75.4999 132.461L74.5313 130.711C73.875 131.074 73.3594 131.35 73.0078 131.534L73.9375 133.305ZM73.5181 133.523C73.6147 133.473 73.7555 133.4 73.9375 133.305L73.0078 131.534C72.832 131.626 72.6973 131.696 72.6064 131.743L73.5181 133.523ZM73.4065 133.58C73.4324 133.566 73.4697 133.547 73.518 133.523L72.6065 131.743C72.561 131.766 72.5266 131.783 72.5035 131.795L73.4065 133.58ZM73.3773 133.594L73.4055 133.58L72.5045 131.794L72.4763 131.809L73.3773 133.594ZM73.368 133.599L73.3756 133.595L72.478 131.808L72.4704 131.812L73.368 133.599ZM73.3643 133.601L73.3664 133.6L72.472 131.811L72.4698 131.812L73.3643 133.601ZM71.5743 132.26C71.7979 132.707 71.9102 132.931 71.9667 133.044C71.9945 133.099 72.0103 133.13 72.0194 133.148C72.0219 133.153 72.0309 133.171 72.0409 133.189C72.044 133.194 72.0502 133.205 72.0584 133.219C72.0639 133.228 72.0835 133.261 72.1123 133.3C72.1269 133.32 72.1556 133.357 72.1968 133.4C72.2329 133.438 72.3172 133.52 72.4484 133.59C72.6032 133.672 72.8126 133.73 73.0508 133.697C73.1557 133.683 73.2384 133.655 73.2918 133.634C73.318 133.623 73.3387 133.613 73.3513 133.607C73.3561 133.605 73.3634 133.601 73.3659 133.6C73.3683 133.599 73.3707 133.598 73.3707 133.598L72.4634 131.815C72.4634 131.815 72.4658 131.814 72.4682 131.813C72.4706 131.812 72.4779 131.808 72.4828 131.806C72.4953 131.8 72.516 131.79 72.5423 131.779C72.5957 131.758 72.6784 131.73 72.7832 131.715C73.0214 131.683 73.2307 131.741 73.3856 131.823C73.5167 131.893 73.601 131.975 73.637 132.012C73.6781 132.055 73.7068 132.093 73.7213 132.112C73.75 132.151 73.7694 132.183 73.7746 132.192C73.7825 132.205 73.7884 132.216 73.791 132.221C73.7991 132.235 73.8044 132.246 73.7998 132.237C73.7947 132.227 73.7824 132.203 73.754 132.146C73.6984 132.035 73.5869 131.813 73.3632 131.365L71.5743 132.26ZM71.5668 133.598C71.5668 133.598 71.5692 133.599 71.5716 133.6C71.5741 133.601 71.5814 133.605 71.5862 133.607C71.5988 133.613 71.6195 133.623 71.6457 133.634C71.6991 133.655 71.7818 133.683 71.8867 133.697C72.1249 133.73 72.3343 133.672 72.4891 133.59C72.6203 133.52 72.7046 133.438 72.7407 133.4C72.7819 133.357 72.8106 133.32 72.8252 133.3C72.854 133.261 72.8736 133.228 72.8791 133.219C72.8873 133.205 72.8935 133.194 72.8966 133.189C72.9066 133.171 72.9156 133.153 72.9181 133.148C72.9272 133.13 72.943 133.099 72.9708 133.044C73.0273 132.931 73.1396 132.707 73.3632 132.26L71.5743 131.365C71.3506 131.813 71.2391 132.035 71.1835 132.146C71.1551 132.203 71.1428 132.227 71.1377 132.237C71.1331 132.246 71.1384 132.235 71.1465 132.221C71.1491 132.216 71.155 132.205 71.1629 132.192C71.1681 132.183 71.1875 132.151 71.2162 132.112C71.2307 132.093 71.2594 132.055 71.3005 132.012C71.3365 131.975 71.4208 131.893 71.5519 131.823C71.7068 131.741 71.9161 131.683 72.1543 131.715C72.2591 131.73 72.3418 131.758 72.3952 131.779C72.4215 131.79 72.4422 131.8 72.4547 131.806C72.4596 131.808 72.4669 131.812 72.4693 131.813C72.4717 131.814 72.4741 131.815 72.4741 131.815L71.5668 133.598ZM71.5711 133.6L71.5732 133.601L72.4677 131.812L72.4655 131.811L71.5711 133.6ZM71.5619 133.595L71.5695 133.599L72.4671 131.812L72.4595 131.808L71.5619 133.595ZM71.532 133.58L71.5602 133.594L72.4612 131.809L72.433 131.794L71.532 133.58ZM71.4727 133.55L71.5297 133.579L72.4353 131.796L72.3784 131.767L71.4727 133.55ZM71.4203 133.523L71.4706 133.549L72.3805 131.768L72.3302 131.742L71.4203 133.523ZM71 133.305C71.182 133.4 71.3228 133.473 71.4194 133.523L72.3311 131.743C72.2402 131.696 72.1055 131.626 71.9297 131.534L71 133.305ZM69.4376 132.461C70.1075 132.832 70.6361 133.114 71 133.305L71.9297 131.534C71.5781 131.35 71.0625 131.074 70.4062 130.711L69.4376 132.461ZM63.9088 129.196C66.1923 130.623 68.0981 131.719 69.4376 132.461L70.4063 130.711C69.0938 129.984 67.2188 128.906 64.9688 127.5L63.9088 129.196ZM47.1517 116.818C53.2535 122.157 59.3458 126.344 63.9088 129.196L64.9687 127.5C60.4687 124.687 54.4688 120.562 48.4687 115.312L47.1517 116.818ZM22.4688 71.8125C22.4688 90.7054 35.0323 106.213 47.1517 116.818L48.4688 115.312C36.4687 104.812 24.4688 89.8124 24.4688 71.8125H22.4688ZM22.4688 29.8125V71.8125H24.4688V29.8125H22.4688ZM23.7665 27.9398C22.9859 28.2326 22.4688 28.9788 22.4688 29.8125H24.4688L24.4688 29.8125L23.7665 27.9398ZM71.7665 9.93984L23.7665 27.9398L24.4687 29.8125L72.4687 11.8125L71.7665 9.93984ZM73.8104 132.26L73.3632 131.365L71.5743 132.26L72.0215 133.154L73.8104 132.26ZM71.5743 133.601C72.1374 133.883 72.8001 133.883 73.3632 133.601L72.4687 131.812H72.4688L71.5743 133.601ZM71.5743 131.365L71.1271 132.26L72.916 133.154L73.3632 132.26L71.5743 131.365ZM73.0756 130.48L73.0626 54.8647L71.0626 54.8651L71.0756 130.48L73.0756 130.48ZM70.4063 130.711C70.8834 130.975 71.2862 131.193 71.6057 131.363L72.5456 129.597C72.2353 129.432 71.8421 129.22 71.3749 128.961L70.4063 130.711ZM64.9687 127.5C67.2188 128.906 69.0938 129.984 70.4062 130.711L71.3749 128.961C70.0894 128.25 68.2452 127.189 66.0287 125.804L64.9687 127.5ZM48.4687 115.312C54.4687 120.562 60.4688 124.687 64.9687 127.5L66.0287 125.804C61.5917 123.031 55.684 118.968 49.7858 113.807L48.4687 115.312ZM24.4688 71.8125C24.4688 89.8124 36.4687 104.812 48.4687 115.312L49.7858 113.807C37.9053 103.412 26.4688 88.9197 26.4688 71.8125H24.4688ZM24.4688 31.568V71.8125H26.4688V31.568H24.4688ZM72.5098 53.9705L25.916 30.6735L25.0215 32.4624L71.6153 55.7593L72.5098 53.9705ZM72.0626 54.8784L72.0756 130.366L74.0756 130.366L74.0626 54.878L72.0626 54.8784ZM73.5485 131.247C73.8273 131.097 74.1563 130.918 74.5312 130.711L73.5626 128.961C73.1955 129.164 72.8741 129.339 72.6027 129.485L73.5485 131.247ZM74.5313 130.711C75.8437 129.984 77.7187 128.906 79.9688 127.5L78.9088 125.804C76.6923 127.189 74.8481 128.25 73.5626 128.961L74.5313 130.711ZM79.9688 127.5C84.4687 124.687 90.4688 120.562 96.4687 115.312L95.1517 113.807C89.2535 118.968 83.3458 123.031 78.9088 125.804L79.9688 127.5ZM96.4687 115.312C108.469 104.812 120.469 89.8124 120.469 71.8125H118.469C118.469 88.9197 107.032 103.412 95.1517 113.807L96.4687 115.312ZM120.469 71.8125V31.6751H118.469V71.8125H120.469ZM119.022 30.7807L72.6153 53.9838L73.5098 55.7726L119.916 32.5695L119.022 30.7807ZM120.469 30.5571V30.5055H118.469V30.5571H120.469ZM119.82 29.5692L72.8199 11.9442L72.1176 13.8168L119.118 31.4418L119.82 29.5692ZM72.1176 11.9442L25.1811 29.5454L25.8834 31.418L72.8199 13.8168L72.1176 11.9442ZM25.085 31.3761L72.1287 54.8979L73.0231 53.1091L25.9795 29.5873L25.085 31.3761ZM73.0231 54.8979L119.916 31.4515L119.022 29.6627L72.1287 53.1091L73.0231 54.8979Z" fill="#CCFF33"/>
</svg>
